<svg width="32" height="32" viewBox="0 0 32 32" fill="none" xmlns="http://www.w3.org/2000/svg">
<g id="Social Media Icon Square/Instagram">
<rect id="Social Media Icon" x="1" y="1" width="30" height="30" rx="7" stroke="white" stroke-width="2"/>
<path id="Instagram" fill-rule="evenodd" clip-rule="evenodd" d="M8 16C8 12.8043 8 11.2065 8.7615 10.0556C9.10155 9.54168 9.54168 9.10155 10.0556 8.7615C11.2065 8 12.8043 8 16 8C19.1957 8 20.7935 8 21.9444 8.7615C22.4583 9.10155 22.8984 9.54168 23.2385 10.0556C24 11.2065 24 12.8043 24 16C24 19.1957 24 20.7935 23.2385 21.9444C22.8984 22.4583 22.4583 22.8984 21.9444 23.2385C20.7935 24 19.1957 24 16 24C12.8043 24 11.2065 24 10.0556 23.2385C9.54168 22.8984 9.10155 22.4583 8.7615 21.9444C8 20.7935 8 19.1957 8 16ZM20.141 15.9993C20.141 18.2867 18.2867 20.141 15.9993 20.141C13.7119 20.141 11.8576 18.2867 11.8576 15.9993C11.8576 13.7119 13.7119 11.8576 15.9993 11.8576C18.2867 11.8576 20.141 13.7119 20.141 15.9993ZM15.9993 18.7398C17.5128 18.7398 18.7398 17.5128 18.7398 15.9993C18.7398 14.4858 17.5128 13.2589 15.9993 13.2589C14.4858 13.2589 13.2589 14.4858 13.2589 15.9993C13.2589 17.5128 14.4858 18.7398 15.9993 18.7398ZM20.3046 12.6234C20.8421 12.6234 21.2778 12.1877 21.2778 11.6503C21.2778 11.1128 20.8421 10.6771 20.3046 10.6771C19.7671 10.6771 19.3314 11.1128 19.3314 11.6503C19.3314 12.1877 19.7671 12.6234 20.3046 12.6234Z" fill="white"/>
</g>
</svg>
