<svg width="32" height="32" viewBox="0 0 32 32" fill="none" xmlns="http://www.w3.org/2000/svg">
<g id="Social Media Icon Square/YouTube">
<g id="Group 73">
<rect id="Social Media Icon" x="1" y="1" width="30" height="30" rx="7" stroke="white" stroke-width="2"/>
<path id="YouTube" d="M16.3891 22.2029L12.7783 22.1354C11.6092 22.1119 10.4372 22.1589 9.29098 21.9152C7.54737 21.5512 7.42385 19.7664 7.29459 18.2693C7.11649 16.1646 7.18544 14.0216 7.52154 11.9344C7.71128 10.7633 8.45797 10.0645 9.61271 9.98844C13.5108 9.71247 17.4348 9.74517 21.3243 9.87393C21.735 9.88573 22.1486 9.95024 22.5537 10.0237C24.5531 10.3818 24.6018 12.4044 24.7314 14.107C24.8607 15.8272 24.8061 17.5563 24.5591 19.2647C24.3609 20.6793 23.9816 21.8656 22.3813 21.9801C20.3762 22.1298 18.4171 22.2504 16.4063 22.212C16.4064 22.2029 16.3949 22.2029 16.3891 22.2029ZM14.2663 18.6216C15.7773 17.735 17.2595 16.8632 18.7619 15.9826C17.2481 15.096 15.7687 14.2242 14.2663 13.3435V18.6216Z" fill="white"/>
</g>
</g>
</svg>
