<svg width="32" height="32" viewBox="0 0 32 32" fill="none" xmlns="http://www.w3.org/2000/svg">
<g id="Social Media Icon Square/LinkedIn">
<g id="Group 73">
<rect id="Social Media Icon" x="1" y="1" width="30" height="30" rx="7" stroke="white" stroke-width="2"/>
<path id="LinkedIn" d="M8 10.152C8 9.63895 8.18019 9.21567 8.54054 8.88218C8.9009 8.54868 9.36937 8.38194 9.94595 8.38194C10.5122 8.38194 10.9704 8.54611 11.3205 8.87449C11.6808 9.21311 11.861 9.65434 11.861 10.1982C11.861 10.6907 11.686 11.1012 11.3359 11.4296C10.9756 11.7682 10.5019 11.9375 9.91506 11.9375H9.89961C9.33333 11.9375 8.87517 11.7682 8.5251 11.4296C8.17503 11.0909 8 10.6651 8 10.152ZM8.20077 23.62V13.3382H11.6293V23.62H8.20077ZM13.529 23.62H16.9575V17.8788C16.9575 17.5197 16.9987 17.2426 17.0811 17.0476C17.2252 16.6988 17.444 16.4037 17.7375 16.1626C18.0309 15.9215 18.399 15.8009 18.8417 15.8009C19.9949 15.8009 20.5714 16.5756 20.5714 18.1251V23.62H24V17.7249C24 16.2062 23.6396 15.0544 22.9189 14.2694C22.1982 13.4844 21.2458 13.0919 20.0618 13.0919C18.7336 13.0919 17.6988 13.6614 16.9575 14.8004V14.8312H16.9421L16.9575 14.8004V13.3382H13.529C13.5495 13.6665 13.5598 14.6875 13.5598 16.4012C13.5598 18.1148 13.5495 20.5211 13.529 23.62Z" fill="white"/>
</g>
</g>
</svg>
