<svg width="32" height="32" viewBox="0 0 32 32" fill="none" xmlns="http://www.w3.org/2000/svg">
<g id="Social Media Icon Square/Twitter">
<rect id="Social Media Icon" x="1" y="1" width="30" height="30" rx="7" stroke="white" stroke-width="2"/>
<path id="Twitter" d="M18.6907 9.50982V9.50694H19.4409L19.7151 9.56169C19.8978 9.59723 20.0637 9.64381 20.2128 9.70144C20.3619 9.75907 20.5062 9.82631 20.6456 9.90315C20.7851 9.97998 20.9116 10.0583 21.0251 10.138C21.1376 10.2168 21.2386 10.3003 21.3281 10.3887C21.4165 10.478 21.5546 10.5011 21.7421 10.4578C21.9297 10.4146 22.1316 10.3546 22.3481 10.2777C22.5645 10.2009 22.7785 10.1145 22.9901 10.0184C23.2017 9.92235 23.3306 9.86137 23.3768 9.83543C23.422 9.80855 23.446 9.79414 23.4489 9.79221L23.4518 9.78789L23.4662 9.78068L23.4806 9.77348L23.495 9.76628L23.5095 9.75907L23.5124 9.75475L23.5167 9.75187L23.521 9.74899L23.5239 9.74467L23.5383 9.74034L23.5528 9.73746L23.5499 9.75907L23.5455 9.78068L23.5383 9.8023L23.5311 9.82391L23.5239 9.83831L23.5167 9.85272L23.5095 9.87433C23.5047 9.88874 23.4999 9.90795 23.495 9.93196C23.4902 9.95598 23.4445 10.052 23.358 10.2201C23.2714 10.3882 23.1632 10.5587 23.0334 10.7316C22.9035 10.9045 22.7871 11.0351 22.6842 11.1235C22.5804 11.2128 22.5116 11.2752 22.4779 11.3108C22.4442 11.3473 22.4034 11.3809 22.3553 11.4116L22.2831 11.4592L22.2687 11.4664L22.2543 11.4736L22.2514 11.4779L22.2471 11.4808L22.2427 11.4836L22.2399 11.488L22.2254 11.4952L22.211 11.5024L22.2081 11.5067L22.2038 11.5096L22.1995 11.5125L22.1966 11.5168L22.1937 11.5211L22.1894 11.524L22.185 11.5269L22.1821 11.5312H22.2543L22.6583 11.4447C22.9276 11.3871 23.1849 11.3175 23.4301 11.2358L23.8197 11.1062L23.8629 11.0918L23.8846 11.0846L23.899 11.0774L23.9134 11.0702L23.9279 11.063L23.9423 11.0557L23.9711 11.0514L24 11.0485V11.0774L23.9928 11.0802L23.9856 11.0846L23.9827 11.0889L23.9784 11.0918L23.974 11.0946L23.9711 11.099L23.9683 11.1033L23.9639 11.1062L23.9596 11.1091L23.9567 11.1134L23.9538 11.1177L23.9495 11.1206L23.9423 11.135L23.9351 11.1494L23.9307 11.1523C23.9288 11.1552 23.8678 11.2368 23.7475 11.3972C23.6273 11.5586 23.5624 11.6402 23.5528 11.6421C23.5431 11.645 23.5297 11.6594 23.5124 11.6854C23.496 11.7122 23.394 11.8193 23.2065 12.0066C23.0189 12.1939 22.8352 12.3606 22.6554 12.5066C22.4746 12.6535 22.3832 12.8341 22.3813 13.0483C22.3784 13.2615 22.3673 13.5026 22.3481 13.7716C22.3288 14.0405 22.2928 14.331 22.2399 14.6432C22.187 14.9554 22.1052 15.3084 21.9946 15.7022C21.884 16.096 21.7493 16.4802 21.5906 16.8548C21.4319 17.2293 21.266 17.5655 21.0929 17.8633C20.9197 18.161 20.761 18.4132 20.6168 18.6197C20.4725 18.8262 20.3258 19.0207 20.1767 19.2032C20.0277 19.3857 19.8391 19.5912 19.6112 19.8198C19.3823 20.0475 19.2572 20.1723 19.2361 20.1944C19.214 20.2155 19.1197 20.2943 18.9533 20.4307C18.7879 20.568 18.6099 20.7054 18.4195 20.8427C18.23 20.9791 18.0559 21.093 17.8972 21.1842C17.7385 21.2754 17.5471 21.3797 17.323 21.4968C17.0999 21.615 16.8584 21.7245 16.5987 21.8253C16.339 21.9262 16.0649 22.0198 15.7764 22.1063C15.4878 22.1927 15.2089 22.26 14.9396 22.308C14.6703 22.356 14.3649 22.3968 14.0234 22.4304L13.5113 22.4809V22.4881H12.5735V22.4809L12.4509 22.4737C12.3691 22.4689 12.3018 22.4641 12.2489 22.4593C12.196 22.4545 11.9964 22.428 11.6501 22.38C11.3039 22.332 11.0322 22.284 10.835 22.2359C10.6378 22.1879 10.3445 22.0967 9.95491 21.9622C9.56537 21.8277 9.2321 21.6918 8.95509 21.5545C8.67905 21.4181 8.50593 21.3316 8.43571 21.2951C8.36646 21.2596 8.28855 21.2154 8.20198 21.1626L8.07214 21.0833L8.06927 21.079L8.06492 21.0761L8.0606 21.0733L8.05771 21.0689L8.04328 21.0617L8.02885 21.0545L8.02598 21.0502L8.02164 21.0473L8.01731 21.0444L8.01443 21.0401L8.01156 21.0358L8.00721 21.0329H8V21.0041L8.01443 21.007L8.02885 21.0113L8.09378 21.0185C8.13706 21.0233 8.25489 21.0305 8.44725 21.0401C8.63962 21.0497 8.844 21.0497 9.06041 21.0401C9.27683 21.0305 9.49806 21.0089 9.72408 20.9753C9.95011 20.9417 10.217 20.8841 10.5248 20.8024C10.8326 20.7208 11.1154 20.6237 11.3731 20.5114C11.63 20.398 11.8127 20.3135 11.9214 20.2578C12.0291 20.2031 12.1936 20.1012 12.4148 19.9524L12.7466 19.729L12.7495 19.7247L12.7538 19.7218L12.7582 19.719L12.761 19.7146L12.7639 19.7103L12.7683 19.7074L12.7726 19.7046L12.7755 19.7002L12.7899 19.6959L12.8043 19.693L12.8072 19.6786L12.8115 19.6642L12.8159 19.6613L12.8188 19.657L12.7033 19.6498C12.6264 19.645 12.5518 19.6402 12.4797 19.6354C12.4076 19.6306 12.2946 19.609 12.1407 19.5706C11.9868 19.5321 11.8209 19.4745 11.6429 19.3977C11.465 19.3208 11.2919 19.2296 11.1235 19.1239C10.9552 19.0183 10.8335 18.9304 10.7585 18.8603C10.6845 18.7911 10.5883 18.6931 10.47 18.5664C10.3526 18.4386 10.2507 18.3075 10.1641 18.173C10.0775 18.0386 9.99483 17.8834 9.91597 17.7077L9.79621 17.4455L9.789 17.4239L9.78179 17.4022L9.77746 17.3878L9.77457 17.3734L9.79621 17.3763L9.81785 17.3806L9.97656 17.4022C10.0824 17.4166 10.2483 17.4214 10.4743 17.4166C10.7003 17.4118 10.8566 17.4022 10.9432 17.3878C11.0298 17.3734 11.0827 17.3638 11.1019 17.359L11.1307 17.3518L11.1668 17.3446L11.2029 17.3374L11.2058 17.3331L11.2101 17.3302L11.2144 17.3273L11.2173 17.323L11.1885 17.3158L11.1596 17.3086L11.1307 17.3014L11.1019 17.2942L11.073 17.287C11.0538 17.2822 11.0201 17.2726 10.972 17.2582C10.924 17.2438 10.7941 17.1909 10.5825 17.0997C10.3709 17.0084 10.2026 16.9196 10.0775 16.8331C9.9522 16.7464 9.83267 16.6516 9.71975 16.5493C9.60721 16.4456 9.48363 16.3121 9.34896 16.1488C9.21431 15.9855 9.09409 15.7958 8.98828 15.5797C8.88248 15.3636 8.80313 15.1571 8.75023 14.9602C8.69753 14.7644 8.66277 14.5643 8.64636 14.3623L8.62038 14.0597L8.63481 14.0626L8.64923 14.0669L8.66366 14.0741L8.67809 14.0813L8.69252 14.0885L8.70694 14.0957L8.93057 14.1966C9.07966 14.2638 9.26481 14.3214 9.48602 14.3695C9.70725 14.4175 9.8395 14.4439 9.88278 14.4487L9.9477 14.4559H10.0775L10.0747 14.4516L10.0703 14.4487L10.066 14.4458L10.0631 14.4415L10.0602 14.4372L10.0559 14.4343L10.0516 14.4314L10.0487 14.4271L10.0343 14.4199L10.0198 14.4127L10.017 14.4084L10.0126 14.4055L10.0083 14.4026L10.0054 14.3983L9.99098 14.3911L9.97656 14.3839L9.97368 14.3796C9.9708 14.3776 9.92944 14.3469 9.84959 14.2873C9.77072 14.2268 9.68801 14.1486 9.60144 14.0525C9.51488 13.9564 9.42831 13.8556 9.34175 13.7499C9.25503 13.6441 9.17778 13.5308 9.11091 13.4114C9.04359 13.2913 8.97241 13.1386 8.89739 12.9532C8.82333 12.7688 8.76706 12.5829 8.72858 12.3956C8.69012 12.2083 8.66848 12.0235 8.66366 11.841C8.65886 11.6585 8.66366 11.5024 8.67809 11.3727C8.69252 11.243 8.72137 11.0966 8.76465 10.9333C8.80794 10.77 8.87046 10.5971 8.95221 10.4146L9.07484 10.1409L9.08206 10.1193L9.08927 10.0976L9.09361 10.0948L9.09648 10.0904L9.09937 10.0861L9.1037 10.0832L9.10804 10.0861L9.11091 10.0904L9.1138 10.0948L9.11812 10.0976L9.12247 10.1005L9.12534 10.1049L9.12822 10.1092L9.13255 10.1121L9.13977 10.1265L9.14698 10.1409L9.15132 10.1438L9.15419 10.1481L9.34896 10.3642C9.47881 10.5083 9.63271 10.6692 9.81064 10.8468C9.98859 11.0245 10.0872 11.1167 10.1064 11.1235C10.1256 11.1311 10.1497 11.1532 10.1785 11.1897C10.2074 11.2253 10.3036 11.3103 10.4671 11.4447C10.6306 11.5792 10.8446 11.7353 11.1091 11.913C11.3736 12.0907 11.667 12.266 11.9892 12.4389C12.3114 12.6118 12.6577 12.7678 13.028 12.9071C13.3983 13.0464 13.658 13.1376 13.807 13.1808C13.9561 13.2241 14.211 13.2793 14.5717 13.3465C14.9324 13.4138 15.2041 13.457 15.3868 13.4762C15.5696 13.4954 15.6946 13.5065 15.7619 13.5093L15.8629 13.5122L15.8601 13.4906L15.8557 13.469L15.8269 13.2889C15.8076 13.1688 15.798 13.0008 15.798 12.7846C15.798 12.5685 15.8149 12.3692 15.8485 12.1867C15.8822 12.0042 15.9327 11.8193 16 11.632C16.0673 11.4447 16.1332 11.2944 16.1977 11.1811C16.2631 11.0687 16.3487 10.9405 16.4545 10.7964C16.5603 10.6523 16.6973 10.5035 16.8656 10.3498C17.034 10.1961 17.2263 10.0592 17.4427 9.93917C17.6592 9.81911 17.8587 9.72785 18.0415 9.66542C18.2242 9.603 18.3781 9.56217 18.5032 9.54296C18.6282 9.52376 18.6907 9.51271 18.6907 9.50982Z" fill="white"/>
</g>
</svg>
